<svg width="154" height="36" viewBox="0 0 154 36" fill="none" xmlns="http://www.w3.org/2000/svg">
<path d="M7.30881 13.112V35H0.684813V0.919998H5.96481L23.5808 23.384V0.967998H30.2048V35H24.6848L7.30881 13.112ZM34.6609 27.56C34.6609 25.928 35.1089 24.504 36.0049 23.288C36.9329 22.04 38.2129 21.08 39.8449 20.408C41.4769 19.736 43.3489 19.4 45.4609 19.4C46.5169 19.4 47.5889 19.496 48.6769 19.688C49.7649 19.848 50.7089 20.088 51.5089 20.408V19.064C51.5089 17.464 51.0289 16.232 50.0689 15.368C49.1409 14.504 47.7489 14.072 45.8929 14.072C44.5169 14.072 43.2049 14.312 41.9569 14.792C40.7089 15.272 39.3969 15.976 38.0209 16.904L35.9569 12.68C37.6209 11.592 39.3169 10.776 41.0449 10.232C42.8049 9.688 44.6449 9.416 46.5649 9.416C50.1489 9.416 52.9329 10.312 54.9169 12.104C56.9329 13.896 57.9409 16.456 57.9409 19.784V27.8C57.9409 28.504 58.0529 29 58.2769 29.288C58.5009 29.544 58.9009 29.704 59.4769 29.768V35C58.9009 35.128 58.3729 35.208 57.8929 35.24C57.4449 35.304 57.0609 35.336 56.7409 35.336C55.4609 35.336 54.4849 35.048 53.8129 34.472C53.1409 33.896 52.7409 33.192 52.6129 32.36L52.4689 31.064C51.3489 32.504 49.9729 33.608 48.3409 34.376C46.7409 35.112 45.0929 35.48 43.3969 35.48C41.7009 35.48 40.1969 35.144 38.8849 34.472C37.5729 33.768 36.5329 32.824 35.7649 31.64C35.0289 30.424 34.6609 29.064 34.6609 27.56ZM50.3089 28.856C51.1089 28.088 51.5089 27.352 51.5089 26.648V24.104C49.8449 23.432 48.1649 23.096 46.4689 23.096C44.7729 23.096 43.3969 23.464 42.3409 24.2C41.2849 24.904 40.7569 25.848 40.7569 27.032C40.7569 27.992 41.1409 28.856 41.9089 29.624C42.6769 30.392 43.7809 30.776 45.2209 30.776C46.1809 30.776 47.1089 30.6 48.0049 30.248C48.9329 29.896 49.7009 29.432 50.3089 28.856ZM78.7891 33.704C77.9251 34.088 76.8531 34.472 75.5731 34.856C74.3251 35.24 73.0291 35.432 71.6851 35.432C70.5011 35.432 69.4131 35.224 68.4211 34.808C67.4291 34.392 66.6291 33.736 66.0211 32.84C65.4451 31.912 65.1571 30.712 65.1571 29.24V14.792H61.8451V9.848H65.1571V1.688H71.5891V9.848H76.8691V14.792H71.5891V27.08C71.5891 27.944 71.8131 28.568 72.2611 28.952C72.7411 29.336 73.3171 29.528 73.9891 29.528C74.6611 29.528 75.3171 29.416 75.9571 29.192C76.5971 28.968 77.1091 28.776 77.4931 28.616L78.7891 33.704ZM81.8989 25.592V9.848H88.3309V24.2C88.3309 28.072 89.7229 30.008 92.5069 30.008C93.7549 30.008 94.9549 29.64 96.1069 28.904C97.2909 28.136 98.2509 26.984 98.9869 25.448V9.848H105.419V27.8C105.419 28.504 105.531 29 105.755 29.288C105.979 29.544 106.379 29.704 106.955 29.768V35C106.315 35.128 105.771 35.208 105.323 35.24C104.907 35.272 104.523 35.288 104.171 35.288C103.019 35.288 102.075 35.032 101.339 34.52C100.635 33.976 100.219 33.24 100.091 32.312L99.9469 30.296C98.8269 32.024 97.3869 33.32 95.6269 34.184C93.8669 35.048 91.9309 35.48 89.8189 35.48C87.2269 35.48 85.2589 34.648 83.9149 32.984C82.5709 31.288 81.8989 28.824 81.8989 25.592ZM126.787 15.416C124.835 15.416 123.091 15.8 121.555 16.568C120.019 17.304 118.915 18.376 118.243 19.784V35H111.811V9.848H117.715V15.224C118.579 13.496 119.699 12.136 121.075 11.144C122.483 10.152 123.955 9.608 125.491 9.512C126.163 9.512 126.595 9.528 126.787 9.56V15.416ZM128.505 27.56C128.505 25.928 128.953 24.504 129.849 23.288C130.777 22.04 132.057 21.08 133.689 20.408C135.321 19.736 137.193 19.4 139.305 19.4C140.361 19.4 141.433 19.496 142.521 19.688C143.609 19.848 144.553 20.088 145.353 20.408V19.064C145.353 17.464 144.873 16.232 143.913 15.368C142.985 14.504 141.593 14.072 139.737 14.072C138.361 14.072 137.049 14.312 135.801 14.792C134.553 15.272 133.241 15.976 131.865 16.904L129.801 12.68C131.465 11.592 133.161 10.776 134.889 10.232C136.649 9.688 138.489 9.416 140.409 9.416C143.993 9.416 146.777 10.312 148.761 12.104C150.777 13.896 151.785 16.456 151.785 19.784V27.8C151.785 28.504 151.897 29 152.121 29.288C152.345 29.544 152.745 29.704 153.321 29.768V35C152.745 35.128 152.217 35.208 151.737 35.24C151.289 35.304 150.905 35.336 150.585 35.336C149.305 35.336 148.329 35.048 147.657 34.472C146.985 33.896 146.585 33.192 146.457 32.36L146.313 31.064C145.193 32.504 143.817 33.608 142.185 34.376C140.585 35.112 138.937 35.48 137.241 35.48C135.545 35.48 134.041 35.144 132.729 34.472C131.417 33.768 130.377 32.824 129.609 31.64C128.873 30.424 128.505 29.064 128.505 27.56ZM144.153 28.856C144.953 28.088 145.353 27.352 145.353 26.648V24.104C143.689 23.432 142.009 23.096 140.313 23.096C138.617 23.096 137.241 23.464 136.185 24.2C135.129 24.904 134.601 25.848 134.601 27.032C134.601 27.992 134.985 28.856 135.753 29.624C136.521 30.392 137.625 30.776 139.065 30.776C140.025 30.776 140.953 30.6 141.849 30.248C142.777 29.896 143.545 29.432 144.153 28.856Z" fill="white"/>
</svg>
